<?xml version="1.0" encoding="iso-8859-1"?>
<!-- Generator: Adobe Illustrator 16.0.0, SVG Export Plug-In . SVG Version: 6.00 Build 0)  -->
<!DOCTYPE svg PUBLIC "-//W3C//DTD SVG 1.1//EN" "http://www.w3.org/Graphics/SVG/1.1/DTD/svg11.dtd">
<svg version="1.1" id="Capa_1" xmlns="http://www.w3.org/2000/svg" xmlns:xlink="http://www.w3.org/1999/xlink" x="0px" y="0px"
	 width="45.937px" height="45.937px" viewBox="0 0 45.937 45.937" style="enable-background:new 0 0 45.937 45.937;"
	 xml:space="preserve">
<g>
	<g>
		<path d="M44.745,18.253L24.455,0.558c-0.852-0.743-2.121-0.743-2.973,0L1.191,18.253c-0.474,0.414-0.642,1.088-0.421,1.677
			c0.221,0.589,0.784,0.99,1.413,0.99h2.45v23.458c0,0.834,0.629,1.558,1.463,1.558H39.84c0.834,0,1.428-0.724,1.428-1.558V20.92
			h2.485c0.629,0,1.193-0.401,1.414-0.99S45.219,18.667,44.745,18.253z M27.257,31.398c0,0.614-0.529,1.143-1.144,1.143h-6.289
			c-0.614,0-1.11-0.527-1.11-1.143v-7.109c0-2.351,1.92-4.256,4.271-4.256c2.352,0,4.271,1.906,4.271,4.256V31.398z"/>
	</g>
</g>
<g>
</g>
<g>
</g>
<g>
</g>
<g>
</g>
<g>
</g>
<g>
</g>
<g>
</g>
<g>
</g>
<g>
</g>
<g>
</g>
<g>
</g>
<g>
</g>
<g>
</g>
<g>
</g>
<g>
</g>
</svg>
